<?xml version="1.0" standalone="no"?>
<!DOCTYPE svg PUBLIC "-//W3C//DTD SVG 20010904//EN"
 "http://www.w3.org/TR/2001/REC-SVG-20010904/DTD/svg10.dtd">
<svg version="1.0" xmlns="http://www.w3.org/2000/svg"
 width="2816.000000pt" height="1536.000000pt" viewBox="0 0 2816.000000 1536.000000"
 preserveAspectRatio="xMidYMid meet">

<g transform="translate(0.000000,1536.000000) scale(0.100000,-0.100000)"
fill="#000000" stroke="none">
<path d="M16126 10835 c-562 -59 -1069 -231 -1526 -519 -566 -356 -1027 -902
-1282 -1516 -180 -433 -277 -915 -278 -1375 -1 -425 59 -792 195 -1200 247
-742 798 -1416 1477 -1808 206 -120 477 -240 675 -301 43 -13 109 -33 147 -45
172 -52 463 -99 751 -122 185 -15 575 -6 770 16 181 21 499 75 695 119 145 32
204 47 482 122 l106 29 52 190 c149 543 330 1266 330 1319 0 10 -13 17 -37 21
-21 4 -60 13 -86 20 -36 10 -49 10 -52 2 -199 -598 -526 -1006 -1007 -1255
-215 -113 -370 -163 -623 -204 -201 -32 -503 -32 -695 0 -512 87 -923 291
-1328 659 -177 161 -331 353 -479 598 -152 251 -220 399 -317 688 -92 276
-120 402 -161 730 -64 511 -34 951 101 1467 95 364 227 665 418 954 318 478
782 826 1316 987 400 120 917 130 1320 25 380 -99 737 -294 981 -536 272 -270
426 -563 508 -973 10 -48 21 -90 24 -93 3 -4 45 -3 92 1 l85 7 0 29 c0 16 -7
100 -15 186 -40 428 -57 964 -41 1269 l8 141 -105 -5 c-147 -6 -312 25 -587
113 -399 128 -763 214 -1057 251 -182 22 -675 28 -857 9z"/>
<path d="M9386 10791 c-3 -14 -15 -87 -26 -161 -22 -139 -67 -384 -146 -788
-25 -129 -43 -240 -40 -247 4 -11 90 -28 150 -30 5 0 16 30 26 67 68 262 226
459 452 562 261 120 559 156 1318 159 l375 2 -3 -2635 c-2 -1623 -7 -2675 -13
-2740 -50 -538 -218 -741 -655 -792 l-104 -12 0 -74 0 -75 363 9 c462 11 1106
11 1595 0 l382 -9 0 75 0 74 -103 12 c-212 25 -338 74 -433 168 -133 130 -201
339 -235 714 -10 103 -12 742 -11 2710 l2 2575 162 -1 c817 -4 1008 -15 1257
-75 68 -16 144 -38 168 -49 l45 -20 77 68 c92 83 202 166 339 257 l102 68 -1
86 c-1 47 -4 96 -7 107 l-7 21 -90 -28 c-116 -38 -211 -56 -360 -70 -147 -15
-3661 -22 -3945 -8 -242 11 -402 33 -527 74 l-102 33 -5 -27z"/>
</g>
</svg>
